<svg version="1.1" xmlns="http://www.w3.org/2000/svg" xmlns:xlink="http://www.w3.org/1999/xlink" width="50.28785" height="46.6971" viewBox="0,0,50.28785,46.6971"><g transform="translate(-214.91858,-155.3702)"><g data-paper-data="{&quot;isPaintingLayer&quot;:true}" fill="none" fill-rule="nonzero" stroke="#0008ff" stroke-width="3.5" stroke-linecap="round" stroke-linejoin="miter" stroke-miterlimit="10" stroke-dasharray="" stroke-dashoffset="0" style="mix-blend-mode: normal"><path d="M218.57641,173.12981c0,0 4.8769,-9.36059 9.05251,-12.006c4.94688,-3.13404 9.55265,-4.00361 11.85497,-4.00361c3.14837,0 8.82329,1.79645 12.40515,4.25725c3.99999,2.74806 8.53456,10.6453 8.53456,10.6453l-6.58705,-3.84153l2.98908,-1.66061" data-paper-data="{&quot;index&quot;:null}"/><path d="M261.54861,184.30769c0,0 -4.8769,9.36059 -9.05251,12.006c-4.94688,3.13404 -9.55265,4.00361 -11.85497,4.00361c-3.14837,0 -8.82329,-1.79645 -12.40515,-4.25725c-3.99999,-2.74807 -8.53456,-10.6453 -8.53456,-10.6453l6.58705,3.84153l-2.98908,1.66061" data-paper-data="{&quot;index&quot;:null}"/></g></g></svg>